<svg width="512" height="512" viewBox="0 0 512 512" fill="none" xmlns="http://www.w3.org/2000/svg">
<path d="M403.375 0H108.623C48.6322 0 0 48.6322 0 108.623V403.375C0 463.366 48.6322 511.998 108.623 511.998H403.375C463.366 511.998 511.998 463.366 511.998 403.375V108.623C511.998 48.6322 463.366 0 403.375 0Z" fill="#0B1D38"/>
<path d="M419.52 142.348C437.385 142.348 451.868 127.865 451.868 110C451.868 92.1347 437.385 77.6519 419.52 77.6519C401.655 77.6519 387.172 92.1347 387.172 110C387.172 127.865 401.655 142.348 419.52 142.348Z" fill="#F41240"/>
<path d="M323.396 138.772H96.0543V391.5H159.331V309.278H280.58L335.9 391.5H406.755L345.751 308.899C364.696 305.868 378.337 298.669 386.673 287.302C395.009 275.935 399.177 257.747 399.177 233.498V214.552C399.177 200.154 397.661 188.787 395.009 180.072C392.356 171.358 387.809 163.779 381.368 156.959C374.548 150.518 366.97 145.971 357.876 142.94C348.782 140.287 337.415 138.772 323.396 138.772ZM313.166 253.579H159.331V194.471H313.166C321.88 194.471 327.943 195.986 330.974 198.639C334.005 201.291 335.9 206.217 335.9 213.416V234.634C335.9 242.212 334.005 247.138 330.974 249.79C327.943 252.443 321.88 253.579 313.166 253.579Z" fill="white"/>
</svg>
